<?xml version="1.0" standalone="no"?>
<!DOCTYPE svg PUBLIC "-//W3C//DTD SVG 20010904//EN"
 "http://www.w3.org/TR/2001/REC-SVG-20010904/DTD/svg10.dtd">
<svg version="1.0" xmlns="http://www.w3.org/2000/svg"
 width="512.000000pt" height="512.000000pt" viewBox="0 0 512.000000 512.000000"
 preserveAspectRatio="xMidYMid meet">
<metadata>
Created by potrace 1.14, written by Peter Selinger 2001-2017
</metadata>
<g transform="translate(0.000000,512.000000) scale(0.100000,-0.100000)"
fill="#000000" stroke="none">
<path d="M8 5108 c-3 -11 -2 -217 1 -285 l1 -22 517 0 c284 0 520 -4 524 -8 4
-4 60 -165 124 -358 64 -192 121 -359 125 -370 11 -25 60 -178 60 -186 0 -3
-147 -5 -328 -4 -180 0 -332 -1 -338 -3 -8 -2 -6 -22 8 -65 11 -34 50 -161 88
-282 37 -121 133 -429 213 -685 192 -615 223 -714 307 -985 39 -126 80 -257
91 -290 l21 -60 1424 0 c1419 0 1424 0 1430 20 7 25 103 293 114 320 5 11 22
58 38 105 85 240 163 462 253 712 98 274 253 709 351 983 27 77 56 157 64 178
8 20 14 41 14 45 0 4 -258 7 -572 7 l-573 -1 -357 361 -356 360 -606 0 -606 0
75 -75 c41 -41 165 -167 275 -280 111 -113 237 -241 281 -285 l79 -80 -521 0
c-453 0 -523 2 -530 15 -5 8 -56 157 -115 330 -58 173 -149 446 -203 605 l-98
290 -636 3 c-503 2 -636 0 -639 -10z"/>
<path d="M1795 1215 c-250 -55 -432 -239 -480 -486 -38 -203 25 -400 174 -549
324 -321 863 -190 1012 246 33 97 34 267 2 369 -61 191 -215 347 -403 406 -80
26 -223 32 -305 14z"/>
<path d="M3622 1209 c-198 -50 -367 -206 -432 -399 -60 -178 -32 -386 72 -538
78 -115 222 -220 341 -247 9 -2 22 -7 27 -10 5 -3 53 -8 106 -10 137 -7 227
16 369 92 88 47 209 207 250 328 31 94 37 230 15 328 -47 205 -219 387 -425
450 -87 27 -231 30 -323 6z"/>
</g>
</svg>
